<svg width="16" height="19" viewBox="0 0 16 19" fill="none" xmlns="http://www.w3.org/2000/svg">
<path d="M13.8891 0.095952C13.7611 0.063969 13.6332 0.0399806 13.5053 0.0239877C13.3773 0.00799623 13.2494 0 13.1215 0C12.6257 0 12.1619 0.123939 11.7301 0.371815C11.2984 0.619691 10.9465 0.959523 10.6747 1.39131L7.98802 5.87706L5.30135 1.39131C5.04548 0.959521 4.70165 0.619691 4.26987 0.371815C3.83808 0.12394 3.36632 0 2.85458 0C2.72664 0 2.5987 0.00799623 2.47077 0.0239877C2.34283 0.0399792 2.2149 0.0639676 2.08696 0.095952C1.47926 0.271864 0.979512 0.615693 0.587706 1.12744C0.195902 1.63918 0 2.2149 0 2.85457V15.4003C0 15.8001 0.0759622 16.1719 0.227886 16.5158C0.379811 16.8596 0.583707 17.1594 0.839579 17.4153C1.09545 17.6712 1.3953 17.8751 1.73913 18.027C2.08296 18.1789 2.45477 18.2549 2.85457 18.2549C3.25437 18.2549 3.62619 18.1789 3.97002 18.027C4.31384 17.8751 4.61369 17.6712 4.86956 17.4153C5.12544 17.1594 5.32934 16.8596 5.48126 16.5158C5.63318 16.1719 5.70915 15.8001 5.70915 15.4003V13.1694C5.72514 13.1854 5.73713 13.2014 5.74513 13.2174C5.75313 13.2334 5.76512 13.2494 5.78111 13.2654L5.8051 13.2894L5.87706 13.3613L5.90105 13.3853L5.92504 13.4093L5.97301 13.4573C6.00499 13.4893 6.02099 13.5132 6.02099 13.5292H6.04497L6.06896 13.5532L6.14093 13.6252L6.16491 13.6492C6.1969 13.6652 6.21689 13.6772 6.22488 13.6852C6.23288 13.6932 6.25287 13.7052 6.28486 13.7211C6.46077 13.8491 6.66866 13.969 6.90854 14.081C7.11644 14.1769 7.38031 14.2409 7.70015 14.2729V14.2969H8.27586L8.29985 14.2729C8.63568 14.2409 8.93952 14.1609 9.21139 14.033C9.29135 14.001 9.37531 13.957 9.46327 13.9011C9.55122 13.8451 9.63518 13.7931 9.71514 13.7451V13.7211C9.73113 13.7052 9.74712 13.6932 9.76312 13.6852C9.77911 13.6772 9.7951 13.6652 9.81109 13.6492L9.83508 13.6252L9.90704 13.5532C9.92303 13.5532 9.93103 13.5452 9.93103 13.5292H9.95502V13.5053C9.97101 13.5053 9.995 13.4893 10.027 13.4573L10.075 13.4093V13.3853C10.091 13.3853 10.0989 13.3773 10.0989 13.3613L10.1709 13.2894L10.1949 13.2654C10.2109 13.2494 10.2229 13.2334 10.2309 13.2174C10.2389 13.2014 10.2509 13.1854 10.2669 13.1694V15.4003C10.2669 15.8001 10.3428 16.1719 10.4947 16.5158C10.6467 16.8596 10.8506 17.1594 11.1064 17.4153C11.3623 17.6712 11.6662 17.8751 12.018 18.027C12.3698 18.1789 12.7376 18.2549 13.1214 18.2549C13.5212 18.2549 13.8931 18.1789 14.2369 18.027C14.5807 17.8751 14.8846 17.6712 15.1484 17.4153C15.4123 17.1594 15.6202 16.8596 15.7721 16.5158C15.924 16.1719 16 15.8001 16 15.4003V2.85458C16 2.2149 15.8041 1.63918 15.4123 1.12744C15.0205 0.615695 14.5128 0.271866 13.8891 0.095952ZM2.27887 0.791605C2.37482 0.759622 2.47077 0.735632 2.56672 0.71964C2.66267 0.703648 2.75863 0.695653 2.85458 0.695653C3.17442 0.695653 3.47427 0.763618 3.75413 0.89955C4.03399 1.03548 4.27787 1.21539 4.48576 1.43928C4.11795 1.29535 3.73414 1.22339 3.33434 1.22339C2.8066 1.22339 2.31885 1.33933 1.87107 1.57121C1.42329 1.8031 1.04748 2.10295 0.743631 2.47076C0.823591 2.07096 0.999503 1.71914 1.27137 1.41529C1.54323 1.11144 1.87906 0.903548 2.27887 0.791605ZM0.695653 8.46777V4.55772C0.695653 4.2059 0.763619 3.87007 0.899551 3.55023C1.03548 3.23039 1.22339 2.95053 1.46327 2.71065C1.70315 2.47077 1.98301 2.28286 2.30285 2.14693C2.62269 2.011 2.96652 1.94303 3.33434 1.94303C3.68616 1.94303 4.02199 2.011 4.34183 2.14693C4.66167 2.28286 4.94153 2.47077 5.18141 2.71065C5.42129 2.95053 5.6092 3.23039 5.74513 3.55023C5.88107 3.87007 5.94903 4.2059 5.94903 4.55772C5.94903 4.92554 5.88107 5.26937 5.74513 5.58921C5.6092 5.90905 5.42129 6.18891 5.18141 6.42879C4.94153 6.66867 4.66167 6.85657 4.34183 6.99251C4.02199 7.12844 3.68616 7.19641 3.33434 7.19641C2.79061 7.19641 2.29486 7.31235 1.84708 7.54423C1.3993 7.77612 1.01549 8.08396 0.695653 8.46777ZM3.33434 7.89206C3.76612 7.89206 4.16992 7.8161 4.54573 7.66417C4.92154 7.51225 5.25338 7.30435 5.54124 7.04048C5.82909 6.77662 6.06897 6.46877 6.26088 6.11695C6.45278 5.76512 6.57272 5.38131 6.6207 4.96552L7.29236 6.09296C7.4203 6.33284 7.50026 6.58871 7.53224 6.86058C7.54823 6.94054 7.55623 7.0205 7.55623 7.10046C7.55623 7.29236 7.52425 7.48426 7.46028 7.67617C7.28436 8.23589 6.94853 8.64368 6.45278 8.89956C6.22889 9.02749 6.02499 9.18341 5.84108 9.36732C5.65718 9.55123 5.50125 9.75513 5.37332 9.97902C5.14943 9.6112 4.85358 9.31935 4.48576 9.10345C4.11794 8.88756 3.71015 8.77962 3.26237 8.77962C2.95852 8.77962 2.67067 8.83559 2.3988 8.94753C2.12694 9.05948 1.89105 9.2154 1.69115 9.4153C1.49125 9.6152 1.33533 9.85108 1.22339 10.1229C1.11144 10.3948 1.05547 10.6827 1.05547 10.9865C1.05547 11.4183 1.2074 11.7901 1.51124 12.102C1.81509 12.4138 2.18291 12.5697 2.61469 12.5697C3.04648 12.5697 3.41829 12.4138 3.73014 12.102C4.04198 11.7901 4.1979 11.4183 4.1979 10.9865C4.1979 10.6667 4.08596 10.3948 3.86207 10.1709C3.63818 9.94704 3.36632 9.83509 3.04648 9.83509C2.83858 9.83509 2.70265 9.76312 2.63868 9.6192C2.83058 9.52325 3.03848 9.47527 3.26237 9.47527C3.74213 9.47527 4.15392 9.64719 4.49775 9.99101C4.84158 10.3348 5.01349 10.7466 5.01349 11.2264V11.5862C5.01349 12.2259 4.7896 12.7696 4.34183 13.2174C3.89405 13.6652 3.35032 13.8891 2.71064 13.8891C2.15092 13.8891 1.67516 13.6932 1.28335 13.3014C0.89155 12.9096 0.695649 12.4338 0.695649 11.8741V10.5068C0.695649 10.1549 0.763612 9.8191 0.899544 9.49926C1.03548 9.17942 1.22338 8.89955 1.46326 8.65968C1.70314 8.4198 1.983 8.23189 2.30284 8.09596C2.62268 7.96002 2.96652 7.89206 3.33434 7.89206ZM2.08696 10.051C2.29486 10.3708 2.6147 10.5307 3.04648 10.5307C3.17442 10.5307 3.28236 10.5747 3.37032 10.6627C3.45827 10.7506 3.50225 10.8586 3.50225 10.9865C3.50225 11.2264 3.4143 11.4343 3.23838 11.6102C3.06247 11.7861 2.85458 11.8741 2.6147 11.8741C2.37482 11.8741 2.17092 11.7861 2.003 11.6102C1.83509 11.4343 1.75113 11.2264 1.75113 10.9865C1.75113 10.6347 1.86307 10.3228 2.08696 10.051ZM2.85458 17.5592C2.26287 17.5592 1.75513 17.3513 1.33134 16.9355C0.907549 16.5197 0.695655 16.008 0.695655 15.4003V13.6972C0.951528 13.969 1.25138 14.1849 1.59521 14.3448C1.93903 14.5048 2.31085 14.5847 2.71065 14.5847C3.17442 14.5847 3.6062 14.4848 4.006 14.2849C4.4058 14.085 4.74163 13.8251 5.0135 13.5053V15.4003C5.0135 16.008 4.8056 16.5198 4.38981 16.9355C3.97402 17.3513 3.46227 17.5592 2.85458 17.5592ZM10.099 12.1379L9.85908 12.5217L9.71515 12.7376L9.69117 12.7616C9.69117 12.7776 9.68317 12.7936 9.66718 12.8096L9.64319 12.8336L9.59521 12.8816L9.57123 12.9056V12.9295C9.53924 12.9295 9.52325 12.9455 9.52325 12.9775H9.49926C9.49926 12.9935 9.49127 13.0015 9.47528 13.0015V13.0255H9.45129L9.37933 13.0975H9.35534L9.28337 13.1694C9.15544 13.2654 9.0275 13.3373 8.89956 13.3853C8.78762 13.4493 8.67567 13.4933 8.56373 13.5172C8.45178 13.5412 8.33185 13.5612 8.20391 13.5772C8.18792 13.5932 8.16393 13.6012 8.13195 13.6012H7.86808C7.8201 13.6012 7.78812 13.5932 7.77213 13.5772C7.56423 13.5612 7.36433 13.5132 7.17242 13.4333C6.98052 13.3533 6.8286 13.2654 6.71665 13.1694H6.69266L6.6207 13.0975H6.59671C6.58072 13.0815 6.57273 13.0655 6.57273 13.0495L6.54874 13.0255H6.52475L6.50077 13.0015L6.47678 12.9775L6.4288 12.9295L6.40482 12.9056V12.8816C6.37283 12.8816 6.35684 12.8656 6.35684 12.8336L6.33285 12.8096L6.26089 12.7376C6.19692 12.6417 6.15694 12.5697 6.14095 12.5217L5.8291 12.042C5.74914 11.8341 5.70916 11.6102 5.70916 11.3703C5.70916 11.1784 5.74114 10.9705 5.80511 10.7466C5.94904 10.2189 6.27688 9.8111 6.78862 9.52324C7.34834 9.2194 7.74814 8.79561 7.98802 8.25188C8.2279 8.79561 8.61971 9.2194 9.16344 9.52324C9.65919 9.77912 9.99502 10.1869 10.1709 10.7466C10.2189 10.9545 10.2429 11.1544 10.2429 11.3463C10.2429 11.6182 10.1949 11.8821 10.099 12.1379ZM13.1215 17.5592C12.5297 17.5592 12.022 17.3513 11.5982 16.9355C11.1744 16.5197 10.9625 16.008 10.9625 15.4003V13.5053C11.2504 13.8251 11.5942 14.085 11.994 14.2849C12.3938 14.4848 12.8256 14.5847 13.2894 14.5847C13.6892 14.5847 14.061 14.5048 14.4048 14.3448C14.7486 14.1849 15.0405 13.969 15.2804 13.6972V15.4003C15.2804 16.008 15.0725 16.5198 14.6567 16.9355C14.2409 17.3513 13.7291 17.5592 13.1215 17.5592ZM15.2804 10.5068V11.8741C15.2804 12.4338 15.0885 12.9096 14.7047 13.3014C14.3208 13.6932 13.8491 13.8891 13.2894 13.8891C12.6497 13.8891 12.106 13.6652 11.6582 13.2174C11.2104 12.7696 10.9785 12.2259 10.9625 11.5862V11.2264C10.9785 10.7466 11.1584 10.3348 11.5023 9.99101C11.8461 9.64719 12.2579 9.47527 12.7376 9.47527C12.9615 9.47527 13.1614 9.52325 13.3373 9.6192C13.2574 9.76312 13.1294 9.83509 12.9535 9.83509C12.6337 9.83509 12.3618 9.94704 12.1379 10.1709C11.9141 10.3948 11.8021 10.6667 11.8021 10.9865C11.8021 11.4183 11.954 11.7901 12.2579 12.102C12.5617 12.4138 12.9295 12.5697 13.3613 12.5697C13.7931 12.5697 14.1649 12.4138 14.4768 12.102C14.7886 11.7901 14.9445 11.4183 14.9445 10.9865C14.9445 10.6827 14.8886 10.3948 14.7766 10.1229C14.6647 9.85108 14.5088 9.6152 14.3089 9.4153C14.109 9.2154 13.8731 9.05948 13.6012 8.94753C13.3293 8.83559 13.0415 8.77962 12.7376 8.77962C12.2739 8.77962 11.8581 8.89156 11.4903 9.11545C11.1224 9.33934 10.8266 9.63519 10.6027 10.003C10.3628 9.53924 9.99501 9.17142 9.49926 8.89956C8.98751 8.6117 8.65967 8.20391 8.51575 7.67617C8.45178 7.46827 8.41979 7.26837 8.41979 7.07647C8.41979 6.74063 8.50775 6.4128 8.68366 6.09296L9.35532 4.96552C9.4033 5.38131 9.52324 5.76512 9.71515 6.11695C9.90705 6.46877 10.1509 6.77662 10.4468 7.04048C10.7426 7.30435 11.0785 7.51225 11.4543 7.66417C11.8301 7.8161 12.2339 7.89206 12.6657 7.89206C13.0175 7.89206 13.3533 7.96002 13.6732 8.09595C13.993 8.23189 14.2729 8.41979 14.5128 8.65968C14.7526 8.89955 14.9405 9.17941 15.0765 9.49925C15.2124 9.81909 15.2804 10.1549 15.2804 10.5068ZM13.9131 10.051C14.009 10.1789 14.089 10.3228 14.1529 10.4828C14.2169 10.6427 14.2489 10.8106 14.2489 10.9865C14.2489 11.2264 14.1609 11.4343 13.985 11.6102C13.8091 11.7861 13.6012 11.8741 13.3613 11.8741C13.1214 11.8741 12.9176 11.7861 12.7496 11.6102C12.5817 11.4343 12.4978 11.2264 12.4978 10.9865C12.4978 10.8586 12.5417 10.7506 12.6297 10.6627C12.7177 10.5747 12.8256 10.5307 12.9535 10.5307C13.3533 10.5307 13.6732 10.3708 13.9131 10.051ZM15.2804 4.55772V8.46777C14.9765 8.08396 14.5967 7.77612 14.1409 7.54423C13.6852 7.31235 13.1934 7.19641 12.6657 7.19641C12.2979 7.19641 11.954 7.12844 11.6342 6.99251C11.3144 6.85658 11.0345 6.66867 10.7946 6.42879C10.5547 6.18891 10.3668 5.90905 10.2309 5.58921C10.095 5.26937 10.027 4.92554 10.027 4.55772C10.027 4.2059 10.095 3.87007 10.2309 3.55023C10.3668 3.23039 10.5547 2.95053 10.7946 2.71065C11.0345 2.47077 11.3144 2.28286 11.6342 2.14693C11.954 2.011 12.2979 1.94303 12.6657 1.94303C13.0175 1.94303 13.3533 2.011 13.6732 2.14693C13.993 2.28286 14.2729 2.47077 14.5128 2.71065C14.7526 2.95053 14.9405 3.23039 15.0765 3.55023C15.2124 3.87007 15.2804 4.2059 15.2804 4.55772ZM12.6657 1.22339C12.2499 1.22339 11.8661 1.29535 11.5143 1.43928C11.7221 1.21539 11.962 1.03548 12.2339 0.899552C12.5058 0.76362 12.8016 0.695654 13.1214 0.695654C13.2174 0.695654 13.3174 0.70365 13.4213 0.719642C13.5252 0.735633 13.6172 0.759622 13.6972 0.791606C14.113 0.903551 14.4568 1.11145 14.7286 1.41529C15.0005 1.71914 15.1764 2.07097 15.2564 2.47077C14.9365 2.10295 14.5527 1.8031 14.105 1.57122C13.6572 1.33933 13.1774 1.22339 12.6657 1.22339ZM2.71065 15.1364C2.35882 15.1364 2.02299 15.0805 1.70315 14.9685L1.24738 14.8246V15.4003C1.24738 15.8481 1.4033 16.2279 1.71514 16.5397C2.02699 16.8516 2.4068 17.0075 2.85458 17.0075C3.30235 17.0075 3.68216 16.8516 3.99401 16.5397C4.30585 16.2279 4.46177 15.8481 4.46177 15.4003V14.7047L3.98201 14.8966C3.5982 15.0565 3.17442 15.1364 2.71065 15.1364ZM2.85458 16.3119C2.47077 16.3119 2.1989 16.1359 2.03898 15.7841C2.15093 15.8001 2.25887 15.8121 2.36282 15.8201C2.46677 15.8281 2.58271 15.8321 2.71065 15.8321C2.88656 15.8321 3.05448 15.8241 3.2144 15.8081C3.37432 15.7921 3.53424 15.7601 3.69416 15.7122C3.63019 15.8881 3.52224 16.032 3.37032 16.1439C3.21839 16.2559 3.04648 16.3119 2.85458 16.3119ZM13.2894 15.1364C12.8416 15.1364 12.4098 15.0565 11.994 14.8966L11.5143 14.7047V15.4003C11.5143 15.8481 11.6702 16.2279 11.982 16.5397C12.2939 16.8516 12.6737 17.0075 13.1215 17.0075C13.5692 17.0075 13.949 16.8516 14.2609 16.5397C14.5727 16.2279 14.7287 15.8481 14.7287 15.4003V14.8246L14.2729 14.9685C13.985 15.0805 13.6572 15.1364 13.2894 15.1364ZM13.1215 16.3119C12.9295 16.3119 12.7576 16.2559 12.6057 16.1439C12.4538 16.032 12.3458 15.8881 12.2819 15.7122C12.4578 15.7601 12.6257 15.7921 12.7856 15.8081C12.9455 15.8241 13.1135 15.8321 13.2894 15.8321C13.4013 15.8321 13.5093 15.8281 13.6132 15.8201C13.7171 15.8121 13.8331 15.8001 13.961 15.7841C13.8011 16.1359 13.5213 16.3119 13.1215 16.3119ZM8.89956 10.003C8.64369 9.87507 8.4198 9.71515 8.22789 9.52324L7.98802 9.28336L7.74813 9.52324C7.55623 9.69916 7.32435 9.85908 7.05248 10.003C6.70066 10.1949 6.46077 10.4988 6.33284 10.9145C6.30086 11.0585 6.28486 11.2024 6.28486 11.3463C6.26887 11.3623 6.26088 11.3863 6.26088 11.4183C6.26088 11.5302 6.28487 11.6422 6.33284 11.7541V11.8021L6.59671 12.2579C6.62869 12.2899 6.64868 12.3139 6.65668 12.3298C6.66468 12.3458 6.68466 12.3698 6.71665 12.4018L6.74064 12.4498L6.76462 12.4738L6.8126 12.5217L6.83659 12.5457L6.86057 12.5697L6.88456 12.5937L6.90855 12.6417H6.93254C6.93254 12.6577 6.94053 12.6657 6.95653 12.6657L6.98051 12.6897H7.0045C7.0045 12.7057 7.01249 12.7136 7.02848 12.7136L7.05247 12.7376C7.16442 12.8176 7.27636 12.8816 7.3883 12.9295C7.46826 12.9615 7.54023 12.9855 7.6042 13.0015C7.66817 13.0175 7.74013 13.0255 7.82009 13.0255L7.84408 13.0495H8.15592C8.33183 13.0335 8.50775 12.9855 8.68366 12.9055C8.73164 12.8736 8.77561 12.8456 8.81559 12.8216C8.85557 12.7976 8.89955 12.7696 8.94752 12.7376V12.7136C8.96352 12.7136 8.97551 12.7096 8.98351 12.7017C8.9915 12.6937 9.0035 12.6897 9.01949 12.6897V12.6657L9.06747 12.6417L9.11544 12.5937L9.13943 12.5697L9.16342 12.5457L9.1874 12.5217C9.1874 12.5058 9.1954 12.4978 9.21139 12.4978V12.4738L9.23538 12.4498L9.28335 12.4018C9.31534 12.3698 9.34732 12.3218 9.37931 12.2579L9.5952 11.8981V11.8501C9.67516 11.6742 9.71514 11.4983 9.71514 11.3223C9.71514 11.1944 9.69115 11.0585 9.64317 10.9145C9.51524 10.4988 9.26737 10.1949 8.89956 10.003ZM8.94753 11.5862L8.77962 11.8981C8.74764 11.93 8.73164 11.954 8.73164 11.97L8.70766 11.994L8.68367 12.018C8.68367 12.034 8.67567 12.042 8.65968 12.042L8.58772 12.1139L8.56373 12.1379L8.53974 12.1619C8.50776 12.1939 8.47977 12.2139 8.45578 12.2219C8.4318 12.2299 8.40381 12.2419 8.37182 12.2579C8.27587 12.3059 8.17992 12.3298 8.08397 12.3298C8.06797 12.3298 8.05198 12.3378 8.03599 12.3538H7.96403L7.94004 12.3298H7.89206C7.8281 12.3298 7.74813 12.3138 7.65218 12.2819C7.57222 12.2659 7.50826 12.2259 7.46028 12.1619L7.43629 12.1379H7.41231L7.38832 12.1139L7.31635 12.042L7.29237 12.018V11.994C7.27637 11.994 7.26838 11.986 7.26838 11.97C7.2364 11.938 7.2204 11.9141 7.2204 11.8981L6.98052 11.5142C6.96453 11.4503 6.95654 11.3943 6.95654 11.3463C6.95654 11.2664 6.97253 11.1864 7.00451 11.1065C7.08447 10.8826 7.21241 10.7226 7.38832 10.6267C7.61221 10.4988 7.81211 10.3708 7.98802 10.2429C8.06798 10.3228 8.15994 10.3908 8.26388 10.4468C8.36783 10.5028 8.46778 10.5627 8.56373 10.6267C8.75564 10.7226 8.89157 10.8826 8.97153 11.1065C8.98752 11.1864 8.99552 11.2584 8.99552 11.3223C8.99552 11.4183 8.97952 11.5063 8.94753 11.5862ZM3.33434 6.64468C3.89406 6.64468 4.38181 6.43679 4.79761 6.02099C5.19741 5.62119 5.39731 5.13344 5.39731 4.55772C5.39731 4.26987 5.34134 4.002 5.22939 3.75413C5.11745 3.50625 4.96952 3.29036 4.78561 3.10645C4.60171 2.92254 4.38581 2.77461 4.13794 2.66267C3.89006 2.55073 3.62219 2.49475 3.33434 2.49475C3.04648 2.49475 2.77462 2.55073 2.51874 2.66267C2.26287 2.77462 2.04298 2.92254 1.85908 3.10645C1.67517 3.29036 1.52724 3.50625 1.4153 3.75413C1.30335 4.002 1.24738 4.26987 1.24738 4.55772V7.19641L1.75113 6.98051C2.2149 6.75662 2.74263 6.64468 3.33434 6.64468ZM1.94303 6.14093V4.55772C1.94303 4.18991 2.07896 3.87007 2.35083 3.5982C2.62269 3.32634 2.95053 3.19041 3.33434 3.19041C3.70215 3.19041 4.022 3.32634 4.29386 3.5982C4.56572 3.87007 4.70166 4.18991 4.70166 4.55772C4.70166 4.94153 4.56573 5.26937 4.29386 5.54123C4.006 5.79711 3.68616 5.92504 3.33434 5.92504C2.85458 5.92504 2.39081 5.99701 1.94303 6.14093ZM12.6657 2.49475C12.3778 2.49475 12.106 2.55073 11.8501 2.66267C11.5942 2.77462 11.3743 2.92254 11.1904 3.10645C11.0065 3.29036 10.8586 3.50625 10.7466 3.75413C10.6347 4.002 10.5787 4.26987 10.5787 4.55772C10.5787 5.14943 10.7866 5.63718 11.2024 6.02099C11.5862 6.43679 12.074 6.64468 12.6657 6.64468C13.2574 6.64468 13.7851 6.75663 14.2489 6.98051L14.7286 7.19641V4.55773C14.7286 4.26987 14.6767 4.002 14.5727 3.75413C14.4688 3.50625 14.3208 3.29036 14.1289 3.10645C13.937 2.92254 13.7172 2.77462 13.4693 2.66267C13.2214 2.55073 12.9535 2.49475 12.6657 2.49475ZM14.033 4.55772V6.14093C13.6012 5.99701 13.1454 5.92504 12.6657 5.92504C12.2819 5.92504 11.958 5.79311 11.6942 5.52924C11.4303 5.26537 11.2984 4.94153 11.2984 4.55772C11.2984 4.18991 11.4303 3.87007 11.6942 3.5982C11.958 3.32634 12.2819 3.19041 12.6657 3.19041C13.0335 3.19041 13.3533 3.32634 13.6252 3.5982C13.8971 3.87007 14.033 4.18991 14.033 4.55772Z" fill="url(#paint0_linear_20_163)"/>
<defs>
<linearGradient id="paint0_linear_20_163" x1="8" y1="0" x2="8" y2="18.2549" gradientUnits="userSpaceOnUse">
<stop stop-color="#F7B32B"/>
<stop offset="1" stop-color="#916919"/>
</linearGradient>
</defs>
</svg>
